<?xml version="1.0" encoding="UTF-8"?><svg id="b" xmlns="http://www.w3.org/2000/svg" viewBox="0 0 16.3 16.3"><g id="c"><g id="d"><path d="M8.1,16.3c4.5,0,8.1-3.6,8.1-8.1S12.6,0,8.1,0,0,3.6,0,8.1s3.6,8.1,8.1,8.1Z" fill="#eb969a"/><path d="M3.2,13.7c0,0,.7-.4,1.6-.9.7-.4,1.5-.9,1.9-1.1-.3-.3-1.8-.9-2.3-.9.7,1.4-1.2,2.9-1.2,2.9ZM14.1,8.8c-.2,0-.3,0-.4,0,.6-.9.8-2,.4-3h0c-.2-.8,0-1.8,0-1.8,0,0-1.1,0-1.8-.2-1.6-.6-3.7.2-4.1,2.2h0c0,0,0,0,0,0-.3-2-2.4-2.8-4.1-2.2-.7.3-1.8.2-1.8.2,0,0,.2,1,0,1.7h0c-.3,1.1-.1,2.2.4,3.1-.1,0-.3,0-.4,0-.3,0-.4,0-.4,0,0,0,.5.5.6.7.2.2.2.5.3.6.3.2.9,0,2.6.5,1.5.4,3.2,1.7,2.5,3.5,0,.3,0,.2.1,0,0-.2.2-.3.2-.6,0,.2.1.4.2.6.1.2.2.2.1,0-.7-1.8,1-3.2,2.5-3.5,1.7-.5,2.3-.3,2.6-.5.2,0,.2-.4.3-.6.2-.2.7-.7.7-.7,0,0,0,0-.4,0ZM8.1,12.3c-.2-.8-.9-1.5-1.7-1.9-.5-.3-1.6-.7-2-.9-.9-.5-1.8-1.3-1.9-2.3-.1-.4-.1-.9,0-1.4,0,.9.7,1.6,1.8,1.6s1.2-.6,1.5-1.1c.2-.5,0-.4-.2-.1-.8.8-1.9.7-2.5.3-.5-.3-.4-1.2-.2-1.6.4-.6,1-1,1.7-1.1.9-.2,1.9.2,2.4,1.1.4.7.9,2.7-.9,3.4-.8.3-1.7.2-2,0,0,0-.3-.2,0,0,.3.3.9.7,1.7.7.6,0,1.5.4,1.5.4,0,0,.2-.9.6-1.3.2-.3.4-.7.4-1,0,.4.2.7.4,1,.4.5.6,1.3.6,1.3,0,0,.8-.3,1.5-.4.8,0,1.4-.3,1.7-.7.2-.2,0-.1,0,0-.4.2-1.2.3-2,0-1.8-.7-1.3-2.7-.9-3.4.5-.8,1.5-1.2,2.4-1.1.7,0,1.3.5,1.7,1.1.2.3.3,1.2-.2,1.6-.5.4-1.6.5-2.4-.3-.3-.3-.4-.3-.2.1.2.5.7,1.1,1.5,1.1,1.1,0,1.7-.8,1.8-1.6.1.5.1.9,0,1.4-.2,1-1.1,1.8-1.9,2.3-.4.2-1.5.6-2,.9-.8.5-1.5,1.1-1.7,1.9ZM11.9,10.8c-.5,0-2,.6-2.3.9.5.2,1.2.7,1.9,1.1.8.5,1.5.9,1.6.9,0,0-1.8-1.5-1.2-2.9Z" fill="#1a1919"/></g></g></svg>