<?xml version="1.0" encoding="UTF-8"?><svg id="b" xmlns="http://www.w3.org/2000/svg" viewBox="0 0 16.3 16.3"><g id="c"><g id="d"><path d="M8.1,16.3c4.5,0,8.1-3.6,8.1-8.1S12.6,0,8.1,0,0,3.6,0,8.1s3.6,8.1,8.1,8.1Z" fill="#8acddc"/><path d="M15.1,8.1h0s0,0,0,0c0,0-.8.5-1.1,1.2h0c-.2,1-.6,1.7-1,2.4v.2c-.4.6-.2,1.6-.2,1.6h0c0,0-.1,0-.1,0,0,0-.9-.3-1.6-.2h-.1c-.5.3-.9.4-1.4.6,0,0,0,0,0,0l-.3.7.2-3.1.6-.3c.3-.2.6-.4.8-.7,0-.2,0-.3-.3-.6-.2-.2-.8-.7-1-.9l-1.3,1.7-1.3-1.7c-.2.2-.8.7-1,.9-.3.2-.3.4-.3.6.2.3.5.5.8.7l.6.3.2,3.1-.3-.7s0,0,0,0c-.5,0-.9-.3-1.4-.5h-.1c-.7-.2-1.6.1-1.6.1h0s0,0,0,0c0,0,.1-1-.2-1.6v-.2c-.5-.6-.9-1.4-1.1-2.2h0c-.3-.8-1.1-1.3-1.1-1.3h0s0,0,0,0c0,0,.8-.5,1.1-1.2h0c.2-1,.6-1.7,1-2.4h0c.3-.8.2-1.7.2-1.8h0c0,0,0,0,0,0,0,0,.9.3,1.6.2h.1c.5-.3.9-.4,1.4-.6,0,0,0,0,0,0l.3-.7-.2,3.1c-.5.2-1,.5-1.4,1,0,.2,0,.4.3.6.2.2.8.7,1,.9l1.3-1.7,1.3,1.7,1-.9c.3-.2.3-.4.3-.6-.4-.4-.9-.7-1.4-1l-.2-3.1.3.7s0,0,0,0c.5.1.9.3,1.4.5h.1c.7.2,1.6-.1,1.6-.1h.1s0,0,0,0c0,0-.2,1,.1,1.6h0c.5.8.9,1.5,1,2.4h0c.3.8,1.1,1.3,1.1,1.3ZM6.1,4.4l.7-2c-2.4.7-4.1,3-4.1,5.7s1.7,4.9,4.1,5.7l-.7-2h0c-1-.6-1.7-1.5-2-2.6-.3-1.1-.2-2.2.4-3.2.4-.7,1-1.3,1.6-1.6ZM5.6,6.5c-.3-.1-.5-.2-.7,0-.4.8-.5,1.7-.3,2.6,0,.2.2.4.3.7.2,0,.4,0,.7,0l1.2-.6-.7-.9.7-.9c-.3-.2-1-.5-1.2-.6ZM10.7,6.5c-.3.1-1,.5-1.2.6l.7.9-.7.9,1.2.6c.3.1.5.1.7,0,.1-.2.2-.4.3-.7.2-.9.1-1.8-.3-2.6-.2,0-.4,0-.7,0ZM9.5,2.4l.7,2c.7.3,1.2.9,1.6,1.6.6.9.7,2.1.4,3.2-.3,1.1-1,2-1.9,2.5h0c0,0-.7,2.1-.7,2.1,2.4-.8,4.1-3,4.1-5.7s-1.7-4.9-4.1-5.7Z" fill="#1a1919"/></g></g></svg>