<?xml version="1.0" encoding="UTF-8"?><svg id="b" xmlns="http://www.w3.org/2000/svg" viewBox="0 0 16.3 16.3"><g id="c"><g id="d"><path d="M8.1,16.3c4.5,0,8.1-3.6,8.1-8.1S12.6,0,8.1,0,0,3.6,0,8.1s3.6,8.1,8.1,8.1Z" fill="#8d7bac"/><path d="M8.1,6.4c-.9,0-1.8.8-1.8,1.8s.8,1.8,1.8,1.8,1.8-.8,1.8-1.8-.8-1.8-1.8-1.8ZM12.9,11.7h.2c.7-.7.3-2.4-1-3.8-.1-.2-.2-.3-.3-.4l3.3-1.8s-1.4.5-1.5,0c0,0,0-.1,0-.2-.2-.9-1.8-1.4-3.7-1-.2,0-.4,0-.5.1V1.3c.1,0-.1,1.2-.6.9h-.2c-.9-.4-2.1.8-2.7,2.7,0,.1-.1.3-.2.5l-3.2-2s1.2.9.8,1.2h-.2c-.7.7-.3,2.4,1,3.8.1.1.2.3.3.4l-3.3,1.8s1.4-.6,1.5,0c0,0,0,.1,0,.2.2,1,1.8,1.4,3.7,1h.5c0-.1-.1,3.7-.1,3.7,0,0,.2-1.5.7-1.2h.2c.9.4,2.1-.9,2.7-2.6l.2-.5,3.2,2s-1.2-.9-.8-1.2ZM12.1,6.4c0,.4,0,.8-.3,1.2l-.5-.4c-.2-.7-.7-1.3-1.4-1.8h-.2c1.2-.2,2.3.3,2.5,1ZM10.6,9.7c-.4.7-1,1.1-1.8,1.3-.8.1-1.5,0-2.2-.4-.6-.4-1.1-1.1-1.3-1.8-.2-.7,0-1.5.4-2.1.4-.7,1-1.1,1.8-1.3.2,0,.4,0,.7,0,.5,0,1.1.1,1.5.4,1.4.9,1.7,2.7.9,4ZM8.6,3.8c.4.1.6.5.8.9l-.6.2c-.5,0-.9,0-1.4,0-.4,0-.7.2-1,.4.6-1.2,1.5-1.8,2.2-1.6ZM4.6,5.6c.3-.3.7-.3,1.2-.2,0,.2,0,.4-.1.6-.1.2-.3.3-.3.4-.4.6-.5,1.3-.5,1.9-.7-1.1-.9-2.2-.2-2.7ZM4.1,9.9c0-.4,0-.8.3-1.1l.5.4c.3.7.7,1.3,1.4,1.7h.2c-1.2.2-2.3-.3-2.5-1ZM7.6,12.5c-.4-.1-.6-.5-.8-.9.2,0,.4-.1.6-.2.2,0,.4,0,.7,0s.5,0,.7,0c.4,0,.7-.3,1-.4-.6,1.1-1.5,1.8-2.2,1.6ZM11.6,10.8c-.3.3-.7.3-1.2.2,0-.2,0-.4,0-.6.1-.1.3-.3.3-.4.4-.6.5-1.2.5-1.9.7,1,.9,2.2.2,2.7Z" fill="#1a1919"/></g></g></svg>