<?xml version="1.0" encoding="UTF-8"?><svg id="b" xmlns="http://www.w3.org/2000/svg" viewBox="0 0 16.3 16.3"><g id="c"><g id="d"><path d="M8.1,16.3c4.5,0,8.1-3.6,8.1-8.1S12.6,0,8.1,0,0,3.6,0,8.1s3.6,8.1,8.1,8.1Z" fill="#f6bc26"/><path d="M9.9,12.5l-1.5-.5.6.6-1,.7-1-.7.6-.6-1.5.5h0c.8.9,1.8,2.7,1.8,2.7,0,0,.9-1.8,1.8-2.7ZM2.9,8.1l.7-1,.6.6-.5-1.5h0c-.9.9-2.7,1.8-2.7,1.8,0,0,1.8.9,2.7,1.8l.5-1.4-.6.6-.7-1ZM6.3,3.7l.5.2,1,.3-.6-.6,1-.7,1,.7-.6.6,1.5-.5h0c-.8-.9-1.8-2.7-1.8-2.7,0,0-.9,1.8-1.8,2.7ZM13.4,8.1l-.7,1-.6-.6.5,1.5h0c.9-.9,2.7-1.8,2.7-1.8,0,0-1.8-.9-2.7-1.8l-.5,1.5.6-.6.7,1ZM12.8,8.1c-.8-.3-1.5-.6-2.1-1.1.3-1,1.1-2.1,2.2-3.7-1.6,1.2-2.7,1.9-3.7,2.3-.4-.6-.8-1.3-1.1-2.1-.3.8-.6,1.5-1.1,2.1-1-.3-2.1-1.1-3.7-2.3,1.2,1.6,1.9,2.7,2.2,3.7-.6.4-1.3.8-2.1,1.1.8.3,1.5.6,2.1,1.1-.3,1-1.1,2.1-2.2,3.7,1.6-1.2,2.7-1.9,3.7-2.2.4.6.8,1.3,1.1,2.1.3-.8.6-1.5,1.1-2.1,1,.3,2.1,1.1,3.7,2.2-1.2-1.6-1.9-2.7-2.2-3.7.6-.4,1.3-.8,2.1-1.1ZM10.1,8.4l-.5.4.2.6c0,.2.1.3.2.5-.2,0-.3-.1-.4-.2l-.7-.2-.4.6c0,.2-.2.3-.3.5-.1-.2-.2-.4-.4-.5l-.4-.5-.6.2c-.2,0-.3.1-.5.2l.2-.4.2-.7-.6-.4c-.1,0-.3-.2-.4-.3.2-.1.4-.2.5-.4l.5-.4-.2-.6c0-.2-.1-.3-.2-.5.2,0,.3.1.4.2l.7.2.4-.6.3-.4c.1.2.2.4.4.5l.4.5.6-.2c.2,0,.3-.1.5-.2l-.2.4-.2.7.6.4.4.3c-.2.1-.4.2-.5.4Z" fill="#1a1919"/></g></g></svg>